<svg width="36" height="22" viewBox="0 0 36 22" fill="none" xmlns="http://www.w3.org/2000/svg">
<path d="M7.848 21.192C5.72 21.192 4.016 20.792 2.736 19.992C1.456 19.176 0.816 17.936 0.816 16.272C0.816 15.392 0.968 14.72 1.272 14.256C1.576 13.792 2.024 13.56 2.616 13.56C3.048 13.56 3.4 13.672 3.672 13.896C3.944 14.12 4.08 14.408 4.08 14.76C4.08 15.08 4.056 15.36 4.008 15.6C4.008 15.664 3.992 15.776 3.96 15.936C3.944 16.096 3.936 16.264 3.936 16.44C3.936 17.16 4.296 17.696 5.016 18.048C5.752 18.4 6.776 18.576 8.088 18.576C9.448 18.576 10.512 18.336 11.28 17.856C12.048 17.36 12.432 16.672 12.432 15.792C12.432 15.248 12.256 14.784 11.904 14.4C11.552 14 11.112 13.672 10.584 13.416C10.056 13.144 9.312 12.816 8.352 12.432C7.12 11.952 6.112 11.496 5.328 11.064C4.56 10.632 3.896 10.048 3.336 9.312C2.792 8.56 2.52 7.632 2.52 6.528C2.52 5.376 2.824 4.352 3.432 3.456C4.056 2.56 4.944 1.864 6.096 1.368C7.264 0.871999 8.632 0.623999 10.2 0.623999C11.368 0.623999 12.44 0.799999 13.416 1.152C14.392 1.488 15.168 2.008 15.744 2.712C16.336 3.416 16.632 4.28 16.632 5.304C16.632 6.312 16.48 7.072 16.176 7.584C15.872 8.096 15.424 8.352 14.832 8.352C14.416 8.352 14.064 8.224 13.776 7.968C13.504 7.712 13.368 7.408 13.368 7.056C13.368 6.752 13.392 6.472 13.44 6.216C13.488 5.736 13.512 5.432 13.512 5.304C13.512 4.632 13.184 4.12 12.528 3.768C11.872 3.416 11.056 3.24 10.08 3.24C8.704 3.24 7.648 3.496 6.912 4.008C6.192 4.504 5.832 5.208 5.832 6.12C5.832 6.728 6.016 7.248 6.384 7.68C6.768 8.112 7.24 8.472 7.8 8.76C8.36 9.048 9.144 9.392 10.152 9.792C11.368 10.288 12.344 10.736 13.08 11.136C13.816 11.536 14.44 12.08 14.952 12.768C15.48 13.456 15.744 14.304 15.744 15.312C15.744 17.2 15.024 18.656 13.584 19.68C12.16 20.688 10.248 21.192 7.848 21.192ZM35.2166 15.648C35.4246 15.648 35.5846 15.744 35.6966 15.936C35.8246 16.128 35.8886 16.392 35.8886 16.728C35.8886 17.352 35.7366 17.848 35.4326 18.216C34.5366 19.288 33.6646 20.04 32.8166 20.472C31.9846 20.904 30.9766 21.12 29.7926 21.12C28.9606 21.12 28.1926 21.016 27.4886 20.808C26.7846 20.6 25.9286 20.288 24.9206 19.872C24.0086 19.472 23.1286 19.144 22.2806 18.888C21.4646 20.376 20.2406 21.12 18.6086 21.12C17.7126 21.12 17.0006 20.92 16.4726 20.52C15.9286 20.104 15.6566 19.576 15.6566 18.936C15.6566 18.152 16.0326 17.504 16.7846 16.992C17.5366 16.464 18.5366 16.2 19.7846 16.2H20.0966L20.5286 9.216C20.6246 7.616 20.9126 6.296 21.3926 5.256C21.8726 4.216 22.5366 3.328 23.3846 2.592C24.1206 1.952 24.9606 1.472 25.9046 1.152C26.8486 0.815999 27.8486 0.647999 28.9046 0.647999C30.6326 0.647999 31.9606 1.096 32.8886 1.992C33.8166 2.888 34.2806 4.056 34.2806 5.496C34.2806 6.472 34.1046 7.264 33.7526 7.872C33.4006 8.464 32.9126 8.76 32.2886 8.76C31.8406 8.76 31.4886 8.656 31.2326 8.448C30.9766 8.224 30.8486 7.912 30.8486 7.512C30.8486 7.368 30.8806 7.104 30.9446 6.72C31.0406 6.272 31.0886 5.872 31.0886 5.52C31.0886 4.848 30.8886 4.32 30.4886 3.936C30.1046 3.536 29.5126 3.336 28.7126 3.336C27.3046 3.336 26.2166 3.8 25.4486 4.728C24.6806 5.64 24.1926 7.08 23.9846 9.048L23.4326 14.496C23.3526 15.264 23.2486 15.928 23.1206 16.488C24.1446 16.664 25.4246 16.944 26.9606 17.328C27.8566 17.552 28.5446 17.712 29.0246 17.808C29.5046 17.904 29.9286 17.952 30.2966 17.952C31.2246 17.952 32.0166 17.8 32.6726 17.496C33.3446 17.176 33.9766 16.672 34.5686 15.984C34.7606 15.76 34.9766 15.648 35.2166 15.648Z" fill="#0993EF"/>
</svg>
