<svg width="32" height="32" viewBox="0 0 32 32" fill="none" xmlns="http://www.w3.org/2000/svg">
<g clip-path="url(#clip0_25_710)">
<path d="M9.36548 3.08001C10.3668 3.4192 11.3193 3.88808 12.1988 4.47468C13.4409 4.15722 14.7181 3.99774 16.0001 4.00001C17.3241 4.00001 18.6015 4.16534 19.7988 4.47334C20.678 3.88731 21.6301 3.41889 22.6308 3.08001C23.5601 2.76401 24.8841 2.25201 25.6708 3.12268C26.2041 3.71468 26.3375 4.70668 26.4321 5.46401C26.5388 6.30935 26.5641 7.41068 26.2841 8.50401C27.3548 9.88668 28.0001 11.536 28.0001 13.3333C28.0001 16.056 26.5255 18.42 24.3428 20.0573C23.2924 20.8354 22.1274 21.4453 20.8895 21.8653C21.1748 22.5187 21.3335 23.2413 21.3335 24V28C21.3335 28.3536 21.193 28.6928 20.9429 28.9428C20.6929 29.1929 20.3538 29.3333 20.0001 29.3333H12.0001C11.6465 29.3333 11.3074 29.1929 11.0573 28.9428C10.8073 28.6928 10.6668 28.3536 10.6668 28V26.6787C9.39348 26.8347 8.32548 26.696 7.41748 26.3107C6.46814 25.908 5.80681 25.284 5.30948 24.6867C4.83748 24.1213 4.32281 22.8467 3.57881 22.5987C3.41264 22.5433 3.259 22.4558 3.12666 22.3411C2.99432 22.2264 2.88586 22.0868 2.80749 21.9301C2.64921 21.6138 2.62307 21.2476 2.73481 20.912C2.84655 20.5764 3.08703 20.299 3.40334 20.1407C3.71966 19.9824 4.08589 19.9563 4.42148 20.068C5.30948 20.364 5.88814 21.004 6.28414 21.5187C6.92414 22.3453 7.44414 23.4253 8.45748 23.856C8.87481 24.0333 9.48681 24.1493 10.4441 24.0187L10.6668 23.9733C10.6694 23.2477 10.8205 22.5303 11.1108 21.8653C9.87292 21.4454 8.70789 20.8354 7.65748 20.0573C5.47481 18.42 4.00014 16.0573 4.00014 13.3333C4.00014 11.5387 4.64414 9.89068 5.71214 8.50935C5.43214 7.41601 5.45614 6.31201 5.56281 5.46534L5.56948 5.41468C5.66681 4.63868 5.78014 3.72534 6.32414 3.12268C7.11081 2.25201 8.43614 2.76534 9.36414 3.08134" fill="black"/>
</g>
<defs>
<clipPath id="clip0_25_710">
<rect width="32" height="32" fill="white"/>
</clipPath>
</defs>
</svg>
