<svg width="42" height="42" viewBox="0 0 42 42" fill="none" xmlns="http://www.w3.org/2000/svg">
<g id="mingcute:github-fill" clip-path="url(#clip0_22_134)">
<g id="Group">
<path id="Vector" d="M12.292 4.04255C13.6062 4.48773 14.8564 5.10313 16.0108 5.87305C17.6411 5.45639 19.3174 5.24707 21 5.25005C22.7378 5.25005 24.4143 5.46705 25.9858 5.8713C27.1397 5.10213 28.3893 4.48732 29.7028 4.04255C30.9225 3.6278 32.6603 2.9558 33.6928 4.09855C34.3928 4.87555 34.5678 6.17755 34.692 7.17155C34.832 8.28105 34.8653 9.72655 34.4978 11.1615C35.903 12.9763 36.75 15.141 36.75 17.5C36.75 21.0735 34.8145 24.1763 31.9498 26.3253C30.5711 27.3465 29.042 28.147 27.4173 28.6983C27.7918 29.5558 28 30.5043 28 31.5V36.75C28 37.2142 27.8157 37.6593 27.4875 37.9875C27.1593 38.3157 26.7142 38.5 26.25 38.5H15.75C15.2859 38.5 14.8408 38.3157 14.5126 37.9875C14.1844 37.6593 14 37.2142 14 36.75V35.0158C12.3288 35.2205 10.927 35.0385 9.73529 34.5328C8.48929 34.0043 7.62128 33.1853 6.96854 32.4013C6.34904 31.6593 5.67354 29.9863 4.69703 29.6608C4.47894 29.5882 4.27729 29.4733 4.10359 29.3228C3.92989 29.1722 3.78754 28.9889 3.68468 28.7833C3.47693 28.3682 3.44262 27.8875 3.58929 27.447C3.73595 27.0066 4.05158 26.6424 4.46674 26.4347C4.8819 26.2269 5.36258 26.1926 5.80304 26.3393C6.96853 26.7278 7.72803 27.5678 8.24778 28.2433C9.08778 29.3283 9.77029 30.7458 11.1003 31.311C11.648 31.5438 12.4513 31.696 13.7078 31.5245L14 31.465C14.0034 30.5127 14.2017 29.5711 14.5828 28.6983C12.9581 28.1471 11.429 27.3465 10.0503 26.3253C7.18554 24.1763 5.25003 21.0753 5.25003 17.5C5.25003 15.1445 6.09528 12.9815 7.49704 11.1685C7.12953 9.73355 7.16104 8.28455 7.30103 7.1733L7.30979 7.1068C7.43754 6.0883 7.58629 4.88955 8.30029 4.09855C9.33279 2.9558 11.0723 3.62955 12.2903 4.0443" fill="white"/>
</g>
</g>
<defs>
<clipPath id="clip0_22_134">
<rect width="42" height="42" fill="white"/>
</clipPath>
</defs>
</svg>
