<svg width="42" height="42" viewBox="0 0 42 42" fill="none" xmlns="http://www.w3.org/2000/svg">
<g id="ion:location-sharp">
<path id="Vector" d="M21 2.625C13.7542 2.625 7.875 7.91684 7.875 14.4375C7.875 24.9375 21 39.375 21 39.375C21 39.375 34.125 24.9375 34.125 14.4375C34.125 7.91684 28.2458 2.625 21 2.625ZM21 21C19.9616 21 18.9466 20.6921 18.0833 20.1152C17.2199 19.5383 16.547 18.7184 16.1496 17.7591C15.7523 16.7998 15.6483 15.7442 15.8509 14.7258C16.0534 13.7074 16.5535 12.7719 17.2877 12.0377C18.0219 11.3035 18.9574 10.8034 19.9758 10.6009C20.9942 10.3983 22.0498 10.5023 23.0091 10.8996C23.9684 11.297 24.7883 11.9699 25.3652 12.8333C25.9421 13.6966 26.25 14.7116 26.25 15.75C26.2485 17.1419 25.6949 18.4764 24.7106 19.4606C23.7264 20.4449 22.3919 20.9985 21 21Z" fill="white"/>
</g>
</svg>
